<svg xmlns="http://www.w3.org/2000/svg" version="1.1" xmlns:xlink="http://www.w3.org/1999/xlink" xmlns:svgjs="http://svgjs.dev/svgjs" width="1500" height="1500" viewBox="0 0 1500 1500"><rect width="1500" height="1500" fill="#ffffff"></rect><g transform="matrix(0.6666666666666666,0,0,0.6666666666666666,250.2757575757576,388.07724989121334)"><svg viewBox="0 0 330 239" data-background-color="#ffffff" preserveAspectRatio="xMidYMid meet" height="1086" width="1500" xmlns="http://www.w3.org/2000/svg" xmlns:xlink="http://www.w3.org/1999/xlink"><g id="tight-bounds" transform="matrix(1,0,0,1,-0.0906400000000076,-0.02500100000001737)"><svg viewBox="0 0 330.18128 239.05050200000002" height="239.05050200000002" width="330.18128"><g><svg></svg></g><g><svg viewBox="0 0 330.18128 239.05050200000002" height="239.05050200000002" width="330.18128"><g transform="matrix(1,0,0,1,-32.66936,-8.149499999999989)"><path d="M32.669 239.05v-230.901h330.182v230.901l-18.585 0 0-2.411h16.173v-226.078h-325.358v226.078h19.581l0 2.411z" fill="#1c4b82" fill-rule="nonzero" stroke="none" stroke-width="1" stroke-linecap="butt" stroke-linejoin="miter" stroke-miterlimit="10" stroke-dasharray="" stroke-dashoffset="0" font-family="none" font-weight="none" font-size="none" text-anchor="none" style="mix-blend-mode: normal" data-fill-palette-color="tertiary"></path><g><path transform="translate(60.17968,246.90992) scale(0.48347,0.48347)" d="M4.25-33.1l-0.7-3.3h10.85c2.3 0 4.383 0.293 6.25 0.88 1.867 0.58 3.343 1.603 4.43 3.07 1.08 1.467 1.62 3.5 1.62 6.1v0c0 1.333-0.317 2.617-0.95 3.85-0.633 1.233-1.473 2.307-2.52 3.22-1.053 0.92-2.213 1.58-3.48 1.98v0l10.2 17.3h-5.4l-9.4-16.35h-6.25v16.35h-4.65zM14.4-32.95h-5.5v13.2h4c1.667 0 3.177-0.193 4.53-0.58 1.347-0.38 2.42-1.07 3.22-2.07 0.8-1 1.2-2.417 1.2-4.25v0c0-1.433-0.35-2.61-1.05-3.53-0.7-0.913-1.617-1.603-2.75-2.07-1.133-0.467-2.35-0.7-3.65-0.7zM121.86-36.4h4.55l12.6 36.4h-5.15l-4.2-12.5h-12l-4.25 12.5h-4.2zM128.51-15.9l-4.8-14.4-4.9 14.4zM233.61-36.9v0c1.667 0 3.293 0.233 4.88 0.7 1.58 0.467 3.087 1.133 4.52 2v0l-2.3 3.35c-1.033-0.767-2.157-1.377-3.37-1.83-1.22-0.447-2.48-0.67-3.78-0.67v0c-1.767 0-3.267 0.443-4.5 1.33-1.233 0.88-1.85 2.287-1.85 4.22v0c0 1.067 0.293 1.973 0.88 2.72 0.58 0.753 1.353 1.413 2.32 1.98 0.967 0.567 2.017 1.117 3.15 1.65v0c1.167 0.533 2.36 1.117 3.58 1.75 1.213 0.633 2.33 1.373 3.35 2.22 1.013 0.853 1.83 1.887 2.45 3.1 0.613 1.22 0.92 2.713 0.92 4.48v0c0 2.4-0.583 4.373-1.75 5.92-1.167 1.553-2.7 2.703-4.6 3.45-1.9 0.753-3.95 1.13-6.15 1.13v0c-1.8 0-3.54-0.243-5.22-0.73-1.687-0.48-3.33-1.137-4.93-1.97v0l1.8-4.1c1.1 0.933 2.433 1.7 4 2.3 1.567 0.6 3.067 0.9 4.5 0.9v0c1.1 0 2.217-0.21 3.35-0.63 1.133-0.413 2.083-1.087 2.85-2.02 0.767-0.933 1.15-2.133 1.15-3.6v0c0-1.467-0.35-2.677-1.05-3.63-0.7-0.947-1.617-1.747-2.75-2.4-1.133-0.647-2.333-1.27-3.6-1.87v0c-1.1-0.533-2.2-1.083-3.3-1.65-1.1-0.567-2.1-1.233-3-2-0.9-0.767-1.617-1.683-2.15-2.75-0.533-1.067-0.8-2.35-0.8-3.85v0c0-2.1 0.56-3.85 1.68-5.25 1.113-1.4 2.547-2.46 4.3-3.18 1.747-0.713 3.553-1.07 5.42-1.07zM338.72-36.4h4.55l12.6 36.4h-5.15l-4.2-12.5h-12l-4.25 12.5h-4.2zM345.37-15.9l-4.8-14.4-4.9 14.4zM440.77-33.1l-0.7-3.3h5.35v32.95h15.3v3.45h-19.95zM555.48-36.4h4.55l12.6 36.4h-5.15l-4.2-12.5h-12l-4.25 12.5h-4.2zM562.13-15.9l-4.8-14.4-4.9 14.4z" fill="#1c4b82" fill-rule="nonzero" stroke="none" stroke-width="1" stroke-linecap="butt" stroke-linejoin="miter" stroke-miterlimit="10" stroke-dasharray="" stroke-dashoffset="0" font-family="none" font-weight="none" font-size="none" text-anchor="none" style="mix-blend-mode: normal" data-fill-palette-color="secondary"></path></g></g><g transform="matrix(1,0,0,1,25.820656720000017,45.02031709651662)"><svg viewBox="0 0 278.53996656 149.00986780696678" height="149.00986780696678" width="278.53996656"><g><svg viewBox="0 0 278.53996656 149.00986780696678" height="149.00986780696678" width="278.53996656"><g transform="matrix(1,0,0,1,0,67.12830870493204)"><svg viewBox="0 0 278.53996656 81.88155910203476" height="81.88155910203476" width="278.53996656"><g><path d="M0 81.882v-81.882h278.54v81.882z" fill="#1c4b82" stroke="transparent" stroke-width="0" rx="0%" data-fill-palette-color="tertiary"></path><path d="M3.156 78.725v-75.569h272.228v75.569z" fill="#ffffff" stroke="transparent" stroke-width="0" rx="0%" data-fill-palette-color="quaternary"></path><path d="M9.469 72.413v-62.944h259.602v62.944z" fill="#1c4b82" stroke="transparent" stroke-width="0" data-fill-palette-color="tertiary"></path></g><g transform="matrix(1,0,0,1,18.93801672,18.93801672)" id="textblocktransform"><svg viewBox="0 0 240.66393311999997 44.005525662034756" height="44.005525662034756" width="240.66393311999997" id="textblock"><g><svg viewBox="0 0 240.66393311999997 44.005525662034756" height="44.005525662034756" width="240.66393311999997"><g transform="matrix(1,0,0,1,0,0)"><svg width="240.66393311999997" viewBox="-0.24 -37.3 210.67000000000002 38.519999999999996" height="44.005525662034756" data-palette-color="#ffffff"><path d="M13.38-36.33L13.38-36.33Q13.72-35.69 13.72-34.86L13.72-34.86Q13.72-34.13 13.43-33.3 13.13-32.47 12.5-32.03L12.5-32.03Q12.06-31.05 11.65-30.44 11.23-29.83 10.84-29.25L10.84-29.25Q10.69-28.91 10.55-28.59 10.4-28.27 10.16-27.93L10.16-27.93Q10.01-27.69 9.52-26.95 9.03-26.22 8.52-25.42 8.01-24.61 7.62-23.88 7.23-23.14 7.23-22.95L7.23-22.95Q7.23-22.75 7.69-22.46 8.15-22.17 8.3-22.02L8.3-22.02Q8.54-21.78 8.76-21.53 8.98-21.29 9.23-21.04L9.23-21.04Q9.77-20.61 10.28-20.17 10.79-19.73 11.33-19.19L11.33-19.19Q12.35-18.26 13.48-17.43 14.6-16.6 15.48-15.48L15.48-15.48Q16.31-15.23 16.55-14.31 16.8-13.38 16.7-12.55L16.7-12.55Q16.8-12.4 16.87-12.26 16.94-12.11 17.04-11.91L17.04-11.91Q17.04-11.13 16.82-10.77 16.6-10.4 16.36-9.86L16.36-9.86Q16.11-9.38 16.04-8.89 15.97-8.4 15.72-8.01L15.72-8.01Q15.63-7.86 15.45-7.76 15.28-7.67 15.19-7.47L15.19-7.47Q14.99-7.13 14.87-6.67 14.75-6.2 14.55-5.81L14.55-5.81Q14.4-5.42 14.18-5.03 13.96-4.64 13.82-4.25L13.82-4.25Q13.72-4 13.65-3.66 13.57-3.32 13.18-3.17L13.18-3.17Q12.94-2.29 12.52-1.46 12.11-0.63 11.87 0.24L11.87 0.24Q11.43 0.39 10.77 0.81 10.11 1.22 9.72 1.22L9.72 1.22Q9.57 1.22 9.47 1.07 9.38 0.93 9.18 0.83L9.18 0.83Q9.08 0.78 8.91 0.83 8.74 0.88 8.64 0.88L8.64 0.88Q8.4 0.88 8.28 0.68 8.15 0.49 7.96 0.39L7.96 0.39Q7.81 0.44 7.67 0.49 7.52 0.54 7.37 0.54L7.37 0.54Q7.03 0.54 6.98 0.37 6.93 0.2 6.69 0.05L6.69 0.05Q6.1-0.24 6.01-0.49 5.91-0.73 5.71-0.83L5.71-0.83Q6.05-2.1 6.64-3.25 7.23-4.39 7.76-5.57L7.76-5.57Q7.91-5.96 8.13-6.3 8.35-6.64 8.54-7.03L8.54-7.03Q8.69-7.37 8.98-7.91 9.28-8.45 9.52-9.03 9.77-9.62 9.96-10.13 10.16-10.64 10.16-10.99L10.16-10.99Q10.16-11.67 9.77-12.01L9.77-12.01Q8.35-13.18 7.1-14.4 5.86-15.63 4.49-16.89L4.49-16.89Q3.61-17.68 2.59-18.51L2.59-18.51Q2.39-18.65 2.29-18.95 2.2-19.24 2-19.48L2-19.48Q1.9-19.68 1.71-19.78 1.51-19.87 1.42-20.07L1.42-20.07Q1.27-20.26 1.22-20.53 1.17-20.8 0.93-20.95L0.93-20.95Q0.68-21.19 0.34-21.24 0-21.29-0.24-21.53L-0.24-21.53Q-0.1-21.68-0.12-21.85-0.15-22.02-0.15-22.17L-0.15-22.17Q-0.15-22.51 0.15-22.66 0.44-22.8 0.44-23.19L0.44-23.19Q0.63-23.58 0.73-23.68L0.73-23.68Q1.27-25 1.95-26.22 2.64-27.44 3.37-28.66L3.37-28.66Q3.61-29.05 3.83-29.42 4.05-29.79 4.3-30.18L4.3-30.18Q4.44-30.52 4.57-30.79 4.69-31.05 4.93-31.3L4.93-31.3Q5.62-32.08 6.08-32.76 6.54-33.45 6.79-34.42L6.79-34.42Q6.84-34.67 6.98-35.11 7.13-35.55 7.35-35.99 7.57-36.43 7.81-36.77 8.06-37.11 8.35-37.11L8.35-37.11Q8.59-37.11 9.06-36.91 9.52-36.72 9.86-36.62L9.86-36.62Q10.16-36.52 10.47-36.45 10.79-36.38 11.08-36.38L11.08-36.38Q11.28-36.38 11.47-36.5 11.67-36.62 11.91-36.62L11.91-36.62Q12.3-36.62 12.65-36.5 12.99-36.38 13.38-36.33ZM22.51-0.63L22.17-0.78Q22.02-0.68 21.87-0.59 21.73-0.49 21.58-0.39L21.58-0.39Q21.04-0.1 20.6-0.07 20.16-0.05 19.63 0.44L19.63 0.44Q19.43 0.2 19.33 0.2 19.24 0.2 18.99 0.2L18.99 0.2Q18.36 0.2 18.26-0.15L18.26-0.15Q18.06-0.1 17.65 0.1 17.23 0.29 17.04 0.39L17.04 0.39Q17.48-0.24 17.62-0.59 17.77-0.93 17.8-1.22 17.82-1.51 17.84-1.83 17.87-2.15 18.06-2.73L18.06-2.73Q18.16-2.93 18.21-3.13 18.26-3.32 18.36-3.56L18.36-3.56Q18.6-4.3 18.77-5.22 18.94-6.15 19.33-6.84L19.33-6.84Q19.33-7.67 19.7-8.4 20.07-9.13 20.31-9.91L20.31-9.91Q20.41-10.21 20.58-10.5 20.75-10.79 20.85-11.08L20.85-11.08Q21.04-11.57 21.16-12.04 21.29-12.5 21.43-12.94L21.43-12.94Q21.82-14.36 22.21-15.75 22.6-17.14 22.95-18.55L22.95-18.55Q23-18.8 23.07-19.09 23.14-19.38 23.24-19.63L23.24-19.63Q23.48-20.36 23.56-21.12 23.63-21.88 24.02-22.56L24.02-22.56Q23.97-22.9 24.05-23.19 24.12-23.49 24.22-23.83 24.31-24.17 24.41-24.46 24.51-24.76 24.56-24.9L24.56-24.9Q24.8-25.54 24.92-26.05 25.05-26.56 25.44-27.15L25.44-27.15Q25.44-27.15 25.58-27.66 25.73-28.17 25.93-28.81 26.12-29.44 26.27-30 26.41-30.57 26.41-30.66L26.41-30.66Q26.51-31.05 26.58-31.4 26.66-31.74 26.76-32.13L26.76-32.13Q26.85-32.37 26.95-32.54 27.05-32.71 27.15-32.96L27.15-32.96Q27.29-33.5 27.44-34.28 27.59-35.06 27.83-35.5L27.83-35.5Q27.98-35.84 28.39-36.06 28.81-36.28 29.1-36.52L29.1-36.52Q29.98-36.43 30.39-36.62 30.81-36.82 31.2-37.11L31.2-37.11Q31.44-37.06 31.66-36.99 31.88-36.91 32.13-36.91L32.13-36.91Q33.05-35.89 33.42-34.81 33.79-33.74 34.13-32.67L34.13-32.67Q34.27-32.13 34.42-31.62 34.57-31.1 34.76-30.62L34.76-30.62Q34.81-30.47 34.91-30.3 35.01-30.13 35.1-29.93L35.1-29.93Q35.35-29.54 35.52-29.1 35.69-28.66 35.84-28.22L35.84-28.22Q36.13-27.88 36.28-27.42 36.42-26.95 36.55-26.49 36.67-26.03 36.81-25.61 36.96-25.2 37.25-24.9L37.25-24.9Q37.35-24.37 37.6-23.85 37.84-23.34 37.94-22.75L37.94-22.75Q38.23-22.36 38.62-21.26 39.01-20.17 39.4-18.9 39.79-17.63 40.13-16.46 40.48-15.28 40.62-14.79L40.62-14.79Q40.72-14.4 41.01-13.79 41.31-13.18 41.55-12.7L41.55-12.7Q41.75-12.16 41.97-11.57 42.19-10.99 42.33-10.45L42.33-10.45Q42.43-9.91 42.55-9.42 42.67-8.94 42.82-8.4L42.82-8.4Q42.92-8.06 43.11-7.79 43.31-7.52 43.41-7.13L43.41-7.13Q43.6-6.74 43.67-6.4 43.75-6.05 43.99-5.66L43.99-5.66Q43.94-5.13 44.04-4.98 44.14-4.83 44.24-4.64L44.24-4.64Q44.43-3.61 44.68-3 44.92-2.39 44.92-1.71L44.92-1.71Q44.92-1.12 44.7-0.98 44.48-0.83 44.14-0.49L44.14-0.49Q43.75-0.15 43.48 0.05 43.21 0.24 42.67 0.24L42.67 0.24Q42.09 0.2 41.97 0.42 41.84 0.63 41.79 0.73L41.79 0.73Q41.21 0.68 41.04 0.71 40.87 0.73 40.7 0.73 40.52 0.73 40.35 0.81 40.18 0.88 39.99 1.12L39.99 1.12Q39.65 0.73 39.33 0.42 39.01 0.1 38.77-0.29L38.77-0.29Q38.77-1.12 38.55-2.25 38.33-3.37 38.08-4L38.08-4Q37.6-5.27 37.18-6.49 36.77-7.71 36.37-8.98L36.37-8.98Q36.23-9.52 36.06-9.96 35.89-10.4 35.69-10.89L35.69-10.89Q35.79-10.5 35.76-10.08 35.74-9.67 35.5-9.28L35.5-9.28Q35.4-9.18 35.2-9.03 35.01-8.89 35.01-8.79L35.01-8.79Q34.42-8.3 33.98-7.86L33.98-7.86Q34.03-6.98 33.74-6.64 33.44-6.3 33.1-6.01L33.1-6.01Q32.27-5.96 32.08-6.1 31.88-6.25 31.54-6.3L31.54-6.3Q31.35-6.35 31.15-6.32 30.95-6.3 30.76-6.3L30.76-6.3Q30.37-6.3 30.03-6.49L30.03-6.49Q29.88-6.59 29.81-6.69 29.73-6.79 29.64-6.88L29.64-6.88Q29.25-7.28 28.73-7.54 28.22-7.81 27.73-8.01L27.73-8.01Q27.34-8.35 26.93-8.72 26.51-9.08 26.07-9.33L26.07-9.33Q25.68-8.4 25.46-7.69 25.24-6.98 24.95-6.3L24.95-6.3Q24.41-4.64 24.07-3.39 23.73-2.15 23.29-0.88L23.29-0.88Q23.09-0.83 22.92-0.73 22.75-0.63 22.51-0.63L22.51-0.63ZM26.76-11.18L26.95-11.18Q27.34-11.87 27.66-11.94 27.98-12.01 28.22-12.3L28.22-12.3Q28.32-12.4 28.44-12.55 28.56-12.7 28.71-12.84L28.71-12.84Q28.85-12.94 29.05-13.04 29.25-13.13 29.39-13.28L29.39-13.28Q29.78-13.62 30.05-13.87 30.32-14.11 30.86-14.11L30.86-14.11Q31.69-14.11 32.22-13.7 32.76-13.28 33.54-13.13L33.54-13.13Q33.64-12.84 34.18-12.72 34.71-12.6 35.01-12.4L35.01-12.4Q34.52-13.62 34.25-14.87 33.98-16.11 33.59-17.33L33.59-17.33Q33.3-18.41 32.91-19.46 32.52-20.51 32.13-21.48L32.13-21.48Q31.78-22.46 31.54-23.39 31.3-24.32 30.91-25.2L30.91-25.2Q30.52-24.32 30.12-23.05 29.73-21.78 29.54-20.8L29.54-20.8Q29.54-20.36 29.49-20.12L29.49-20.12Q29.39-19.78 29.29-19.51 29.2-19.24 29.1-18.95L29.1-18.95Q28.46-17.04 27.95-15.09 27.44-13.13 26.76-11.18L26.76-11.18ZM62.54-5.62L62.54-5.62Q62.45-5.32 62.45-5.08L62.45-5.08Q62.45-4.79 62.52-4.49 62.59-4.2 62.59-3.91L62.59-3.91Q62.5-3.03 62.45-2.83L62.45-2.83Q62.15-2.59 61.25-2.27 60.35-1.95 59.1-1.64 57.86-1.32 56.42-1 54.98-0.68 53.66-0.39 52.34-0.1 51.24 0.12 50.14 0.34 49.6 0.44L49.6 0.44Q49.36 0.49 49.14 0.56 48.92 0.63 48.68 0.73L48.68 0.73Q48.43 0.78 48.19 0.76 47.94 0.73 47.7 0.83L47.7 0.83Q47.55 0.83 47.43 0.68 47.31 0.54 47.21 0.44L47.21 0.44Q47.21 0.15 47.11 0 47.02-0.15 46.89-0.24 46.77-0.34 46.67-0.46 46.58-0.59 46.58-0.88L46.58-0.88Q46.48-1.27 46.31-1.49 46.14-1.71 46.14-1.9L46.14-1.9Q45.94-2.54 45.94-3.03L45.94-3.03Q45.94-3.27 45.99-3.42 46.04-3.56 46.14-3.71L46.14-3.71Q46.43-3.81 46.58-3.96 46.72-4.1 46.97-4.2L46.97-4.2Q47.26-4.35 47.8-4.47 48.33-4.59 48.97-4.74 49.6-4.88 50.19-5.03 50.78-5.18 51.17-5.32L51.17-5.32Q51.31-5.37 51.46-5.37 51.61-5.37 51.7-5.47L51.7-5.47Q51.61-6.25 51.58-7.03 51.56-7.81 51.46-8.54L51.46-8.54Q51.46-8.89 51.41-9.23 51.36-9.57 51.36-9.86L51.36-9.86 51.41-10.89Q51.41-12.74 51.26-14.6 51.12-16.46 51.12-18.31L51.12-18.31 51.12-19.97Q51.12-20.36 51.09-20.7 51.07-21.04 51.07-21.44L51.07-21.44Q51.07-22.36 51.09-23.22 51.12-24.07 51.12-25L51.12-25 51.12-29.49Q50.04-29.74 49.12-29.47 48.19-29.2 47.21-29.1L47.21-29.1Q46.87-29.44 46.82-29.83L46.82-29.83Q46.43-30.37 46.28-30.52 46.14-30.66 45.94-31.35L45.94-31.35Q45.6-32.03 45.38-32.2 45.16-32.37 45.16-32.76L45.16-32.76Q45.16-33.01 45.28-33.11 45.41-33.2 45.5-33.45L45.5-33.45Q45.94-33.64 46.02-33.72 46.09-33.79 46.19-33.84L46.19-33.84Q46.67-34.18 47.31-34.33 47.94-34.47 48.53-34.67L48.53-34.67Q49.02-34.81 49.46-35.01 49.9-35.21 50.43-35.35L50.43-35.35Q51.07-35.55 51.7-35.74 52.34-35.94 52.92-36.08L52.92-36.08Q53.32-36.18 53.68-36.16 54.05-36.13 54.44-36.38L54.44-36.38Q55.07-36.28 55.78-36.4 56.49-36.52 57.32-36.72 58.15-36.91 58.93-37.06 59.71-37.21 60.1-37.3L60.1-37.3Q60.35-37.21 60.44-37.06 60.54-36.91 60.74-36.87L60.74-36.87Q60.79-36.72 60.83-36.5 60.88-36.28 61.03-36.18L61.03-36.18Q61.03-35.64 61.27-35.4L61.27-35.4Q61.23-34.91 61.45-34.3 61.66-33.69 61.66-33.15L61.66-33.15Q61.42-32.42 60.86-32.23 60.3-32.03 59.64-31.88 58.98-31.74 58.34-31.62 57.71-31.49 57.32-31.35L57.32-31.35Q57.32-30.66 57.34-29.93 57.37-29.2 57.37-28.47L57.37-28.47Q57.37-27.78 57.34-27.1 57.32-26.42 57.32-25.73L57.32-25.73Q57.32-24.71 57.29-23.63 57.27-22.56 57.27-21.48L57.27-21.48Q57.27-19.97 57.32-18.46 57.37-16.94 57.47-15.43L57.47-15.43Q57.51-15.19 57.51-14.7L57.51-14.7Q57.51-12.74 57.59-10.86 57.66-8.98 57.86-6.98L57.86-6.98Q58.49-6.93 58.83-7.18L58.83-7.18Q59.08-7.18 59.3-7.28 59.52-7.37 59.71-7.47L59.71-7.47Q60-7.52 60.52-7.64 61.03-7.76 61.18-7.76L61.18-7.76Q61.62-7.71 61.71-7.76L61.71-7.76Q61.86-7.47 62.15-7.32L62.15-7.32Q62.25-6.88 62.32-6.47 62.4-6.05 62.54-5.62ZM88.08 0.15L87.74 0.1Q87.49 0.68 86.71 1.07L86.71 1.07Q86.37 0.88 86.1 0.61 85.83 0.34 85.44 0.2L85.44 0.2Q85.15-0.39 85-0.51 84.86-0.63 84.66-0.68L84.66-0.68Q84.37-0.93 84.17-1.27 83.98-1.61 83.73-1.86L83.73-1.86Q83.64-1.9 83.37-2.17 83.1-2.44 82.81-2.73 82.51-3.03 82.27-3.3 82.02-3.56 81.97-3.56L81.97-3.56Q81.54-3.86 81.19-4.2L81.19-4.2Q81.1-4.35 80.97-4.52 80.85-4.69 80.75-4.79L80.75-4.79Q80.36-4.93 80.12-5.2 79.88-5.47 79.66-5.81 79.44-6.15 79.17-6.42 78.9-6.69 78.56-6.84L78.56-6.84Q78.22-7.32 77.73-7.64 77.24-7.96 76.9-8.4L76.9-8.4Q76.6-8.74 76.26-9.06 75.92-9.38 75.53-9.67L75.53-9.67Q75.33-9.96 74.89-10.52 74.46-11.08 74.11-11.13L74.11-11.13Q74.06-10.01 74.04-8.89 74.02-7.76 73.97-6.64L73.97-6.64Q73.97-6.05 73.99-5.42 74.02-4.79 73.97-4.15L73.97-4.15Q73.92-3.91 73.85-3.64 73.77-3.37 73.77-3.08L73.77-3.08Q73.77-2.49 73.7-2.32 73.63-2.15 73.58-2L73.58-2Q73.43-1.51 73.31-0.81 73.19-0.1 72.8 0.29L72.8 0.29Q72.26 0.34 71.97 0.2L71.97 0.2Q71.87 0.29 71.77 0.39 71.67 0.49 71.48 0.49L71.48 0.49Q71.38 0.39 71.16 0.32 70.94 0.24 70.84 0.24L70.84 0.24Q70.6 0.24 70.33 0.34 70.06 0.44 69.82 0.44L69.82 0.44Q69.57 0.44 69.4 0.32 69.23 0.2 68.99 0.2L68.99 0.2Q68.84 0.2 68.64 0.34 68.45 0.49 68.25 0.49L68.25 0.49Q68.01 0.49 67.84 0.42 67.67 0.34 67.47 0.29L67.47 0.29Q67.47 0.15 67.5 0 67.52-0.15 67.47-0.29L67.47-0.29 67.28-1.51Q67.33-1.86 67.4-2.2 67.47-2.54 67.52-2.83L67.52-2.83Q67.57-3.61 67.6-4.32 67.62-5.03 67.62-5.76L67.62-5.76Q67.62-7.03 67.6-8.25 67.57-9.47 67.62-10.74L67.62-10.74Q67.67-11.18 67.74-11.65 67.81-12.11 67.81-12.55L67.81-12.55Q67.81-13.82 67.96-15.04 68.11-16.26 68.21-17.53L68.21-17.53Q68.3-18.51 68.3-19.43 68.3-20.36 68.3-21.29L68.3-21.29Q68.3-23.1 68.25-24.88 68.21-26.66 68.21-28.42L68.21-28.42Q68.21-29 68.25-30 68.3-31.01 68.16-31.54L68.16-31.54Q68.21-32.96 68.16-34.33L68.16-34.33Q68.35-34.42 68.38-34.62 68.4-34.81 68.4-35.01L68.4-35.01 68.4-35.69Q68.84-36.18 69.13-36.18L69.13-36.18Q69.38-36.18 69.62-36.13 69.87-36.08 70.11-35.94L70.11-35.94Q70.74-36.08 70.94-35.99 71.14-35.89 71.38-35.79L71.38-35.79Q71.77-35.84 71.92-36.13L71.92-36.13Q72.45-36.04 72.45-35.89 72.45-35.74 72.55-35.6L72.55-35.6Q73.04-35.55 73.21-35.67 73.38-35.79 73.63-35.84L73.63-35.84Q74.06-35.74 74.21-35.6L74.21-35.6Q74.21-35.3 74.36-34.94 74.5-34.57 74.5-33.98L74.5-33.98Q74.5-33.54 74.46-33.13 74.41-32.71 74.41-32.32L74.41-32.32Q74.41-31.64 74.46-31.01 74.5-30.37 74.5-29.69L74.5-29.69Q74.5-29.49 74.48-29.32 74.46-29.15 74.46-28.96L74.46-28.96Q74.46-27.1 74.55-25.2 74.65-23.29 74.65-21.39L74.65-21.39Q74.65-21.29 74.6-21.12 74.55-20.95 74.65-20.85L74.65-20.85Q75.48-21.73 76.07-22.73 76.65-23.73 77.34-24.71L77.34-24.71Q77.92-25.44 78.53-26.46 79.14-27.49 79.58-28.32L79.58-28.32Q79.78-28.61 79.92-28.91 80.07-29.2 80.27-29.49L80.27-29.49Q80.36-29.74 80.53-29.96 80.71-30.18 80.8-30.47L80.8-30.47Q81.05-30.86 81.24-31.23 81.44-31.59 81.68-31.98L81.68-31.98Q81.93-32.37 82.19-32.69 82.46-33.01 82.71-33.35L82.71-33.35Q83.1-33.98 83.54-34.64 83.98-35.3 84.32-35.99L84.32-35.99Q84.81-36.23 85.2-36.55 85.59-36.87 86.03-37.11L86.03-37.11Q86.52-36.47 86.74-36.23 86.96-35.99 87.35-35.94L87.35-35.94Q87.44-35.79 87.47-35.6 87.49-35.4 87.64-35.3L87.64-35.3Q88.22-35.25 88.32-35.3L88.32-35.3Q88.47-35.06 88.74-34.94 89.01-34.81 89.25-34.72L89.25-34.72Q89.25-34.57 89.25-34.4 89.25-34.23 89.3-34.13L89.3-34.13Q89.89-33.89 89.89-33.2L89.89-33.2Q88.96-31.54 87.86-30.05 86.76-28.56 85.93-26.86L85.93-26.86Q85.69-26.32 85.37-25.83 85.05-25.34 84.86-24.8L84.86-24.8Q84.51-24.46 84.32-24.1 84.12-23.73 83.83-23.39L83.83-23.39Q83.64-23.14 83.44-22.88 83.24-22.61 83.05-22.36L83.05-22.36Q82.66-21.83 82.34-21.26 82.02-20.7 81.58-20.17L81.58-20.17Q81.29-19.68 80.9-19.19L80.9-19.19Q80.51-18.65 80.24-17.99 79.97-17.33 79.58-16.8L79.58-16.8Q79.19-16.21 79.17-15.94 79.14-15.67 78.9-15.04L78.9-15.04Q79.24-14.5 79.68-14.06 80.12-13.62 80.61-13.23L80.61-13.23Q81-12.7 81.51-12.28 82.02-11.87 82.56-11.38L82.56-11.38Q82.76-11.18 82.9-11.01 83.05-10.84 83.24-10.69L83.24-10.69Q83.78-10.11 84.54-9.57 85.3-9.03 85.98-8.54L85.98-8.54Q86.52-8.06 87.32-7.35 88.13-6.64 89.01-5.83 89.89-5.03 90.57-4.32 91.25-3.61 91.25-3.42L91.25-3.42Q91.01-2.69 90.69-2.51 90.37-2.34 90.23-2L90.23-2Q89.93-1.9 89.93-1.81 89.93-1.71 89.79-1.46L89.79-1.46Q89.45-1.22 89.2-0.9 88.96-0.59 88.71-0.29L88.71-0.29Q88.52-0.2 88.35-0.12 88.18-0.05 88.08 0.15L88.08 0.15ZM108.88-5.62L108.88-5.62Q108.78-5.32 108.78-5.08L108.78-5.08Q108.78-4.79 108.85-4.49 108.93-4.2 108.93-3.91L108.93-3.91Q108.83-3.03 108.78-2.83L108.78-2.83Q108.49-2.59 107.58-2.27 106.68-1.95 105.43-1.64 104.19-1.32 102.75-1 101.31-0.68 99.99-0.39 98.67-0.1 97.57 0.12 96.47 0.34 95.94 0.44L95.94 0.44Q95.69 0.49 95.47 0.56 95.25 0.63 95.01 0.73L95.01 0.73Q94.77 0.78 94.52 0.76 94.28 0.73 94.03 0.83L94.03 0.83Q93.89 0.83 93.76 0.68 93.64 0.54 93.54 0.44L93.54 0.44Q93.54 0.15 93.45 0 93.35-0.15 93.23-0.24 93.11-0.34 93.01-0.46 92.91-0.59 92.91-0.88L92.91-0.88Q92.81-1.27 92.64-1.49 92.47-1.71 92.47-1.9L92.47-1.9Q92.28-2.54 92.28-3.03L92.28-3.03Q92.28-3.27 92.32-3.42 92.37-3.56 92.47-3.71L92.47-3.71Q92.76-3.81 92.91-3.96 93.06-4.1 93.3-4.2L93.3-4.2Q93.59-4.35 94.13-4.47 94.67-4.59 95.3-4.74 95.94-4.88 96.52-5.03 97.11-5.18 97.5-5.32L97.5-5.32Q97.65-5.37 97.79-5.37 97.94-5.37 98.04-5.47L98.04-5.47Q97.94-6.25 97.91-7.03 97.89-7.81 97.79-8.54L97.79-8.54Q97.79-8.89 97.74-9.23 97.7-9.57 97.7-9.86L97.7-9.86 97.74-10.89Q97.74-12.74 97.6-14.6 97.45-16.46 97.45-18.31L97.45-18.31 97.45-19.97Q97.45-20.36 97.43-20.7 97.4-21.04 97.4-21.44L97.4-21.44Q97.4-22.36 97.43-23.22 97.45-24.07 97.45-25L97.45-25 97.45-29.49Q96.38-29.74 95.45-29.47 94.52-29.2 93.54-29.1L93.54-29.1Q93.2-29.44 93.15-29.83L93.15-29.83Q92.76-30.37 92.62-30.52 92.47-30.66 92.28-31.35L92.28-31.35Q91.93-32.03 91.71-32.2 91.49-32.37 91.49-32.76L91.49-32.76Q91.49-33.01 91.62-33.11 91.74-33.2 91.84-33.45L91.84-33.45Q92.28-33.64 92.35-33.72 92.42-33.79 92.52-33.84L92.52-33.84Q93.01-34.18 93.64-34.33 94.28-34.47 94.86-34.67L94.86-34.67Q95.35-34.81 95.79-35.01 96.23-35.21 96.77-35.35L96.77-35.35Q97.4-35.55 98.04-35.74 98.67-35.94 99.26-36.08L99.26-36.08Q99.65-36.18 100.01-36.16 100.38-36.13 100.77-36.38L100.77-36.38Q101.41-36.28 102.11-36.4 102.82-36.52 103.65-36.72 104.48-36.91 105.26-37.06 106.04-37.21 106.44-37.3L106.44-37.3Q106.68-37.21 106.78-37.06 106.87-36.91 107.07-36.87L107.07-36.87Q107.12-36.72 107.17-36.5 107.22-36.28 107.36-36.18L107.36-36.18Q107.36-35.64 107.61-35.4L107.61-35.4Q107.56-34.91 107.78-34.3 108-33.69 108-33.15L108-33.15Q107.75-32.42 107.19-32.23 106.63-32.03 105.97-31.88 105.31-31.74 104.68-31.62 104.04-31.49 103.65-31.35L103.65-31.35Q103.65-30.66 103.68-29.93 103.7-29.2 103.7-28.47L103.7-28.47Q103.7-27.78 103.68-27.1 103.65-26.42 103.65-25.73L103.65-25.73Q103.65-24.71 103.63-23.63 103.6-22.56 103.6-21.48L103.6-21.48Q103.6-19.97 103.65-18.46 103.7-16.94 103.8-15.43L103.8-15.43Q103.85-15.19 103.85-14.7L103.85-14.7Q103.85-12.74 103.92-10.86 103.99-8.98 104.19-6.98L104.19-6.98Q104.82-6.93 105.17-7.18L105.17-7.18Q105.41-7.18 105.63-7.28 105.85-7.37 106.04-7.47L106.04-7.47Q106.34-7.52 106.85-7.64 107.36-7.76 107.51-7.76L107.51-7.76Q107.95-7.71 108.05-7.76L108.05-7.76Q108.19-7.47 108.49-7.32L108.49-7.32Q108.58-6.88 108.66-6.47 108.73-6.05 108.88-5.62ZM124.01-36.33L124.01-36.33Q124.35-35.69 124.35-34.86L124.35-34.86Q124.35-34.13 124.06-33.3 123.77-32.47 123.13-32.03L123.13-32.03Q122.69-31.05 122.28-30.44 121.86-29.83 121.47-29.25L121.47-29.25Q121.33-28.91 121.18-28.59 121.03-28.27 120.79-27.93L120.79-27.93Q120.64-27.69 120.15-26.95 119.67-26.22 119.15-25.42 118.64-24.61 118.25-23.88 117.86-23.14 117.86-22.95L117.86-22.95Q117.86-22.75 118.32-22.46 118.79-22.17 118.93-22.02L118.93-22.02Q119.18-21.78 119.4-21.53 119.62-21.29 119.86-21.04L119.86-21.04Q120.4-20.61 120.91-20.17 121.42-19.73 121.96-19.19L121.96-19.19Q122.99-18.26 124.11-17.43 125.23-16.6 126.11-15.48L126.11-15.48Q126.94-15.23 127.18-14.31 127.43-13.38 127.33-12.55L127.33-12.55Q127.43-12.4 127.5-12.26 127.58-12.11 127.67-11.91L127.67-11.91Q127.67-11.13 127.45-10.77 127.23-10.4 126.99-9.86L126.99-9.86Q126.75-9.38 126.67-8.89 126.6-8.4 126.35-8.01L126.35-8.01Q126.26-7.86 126.09-7.76 125.92-7.67 125.82-7.47L125.82-7.47Q125.62-7.13 125.5-6.67 125.38-6.2 125.18-5.81L125.18-5.81Q125.04-5.42 124.82-5.03 124.6-4.64 124.45-4.25L124.45-4.25Q124.35-4 124.28-3.66 124.21-3.32 123.82-3.17L123.82-3.17Q123.57-2.29 123.16-1.46 122.74-0.63 122.5 0.24L122.5 0.24Q122.06 0.39 121.4 0.81 120.74 1.22 120.35 1.22L120.35 1.22Q120.2 1.22 120.1 1.07 120.01 0.93 119.81 0.83L119.81 0.83Q119.71 0.78 119.54 0.83 119.37 0.88 119.27 0.88L119.27 0.88Q119.03 0.88 118.91 0.68 118.79 0.49 118.59 0.39L118.59 0.39Q118.44 0.44 118.3 0.49 118.15 0.54 118.01 0.54L118.01 0.54Q117.66 0.54 117.61 0.37 117.57 0.2 117.32 0.05L117.32 0.05Q116.74-0.24 116.64-0.49 116.54-0.73 116.34-0.83L116.34-0.83Q116.69-2.1 117.27-3.25 117.86-4.39 118.4-5.57L118.4-5.57Q118.54-5.96 118.76-6.3 118.98-6.64 119.18-7.03L119.18-7.03Q119.32-7.37 119.62-7.91 119.91-8.45 120.15-9.03 120.4-9.62 120.59-10.13 120.79-10.64 120.79-10.99L120.79-10.99Q120.79-11.67 120.4-12.01L120.4-12.01Q118.98-13.18 117.74-14.4 116.49-15.63 115.12-16.89L115.12-16.89Q114.25-17.68 113.22-18.51L113.22-18.51Q113.02-18.65 112.93-18.95 112.83-19.24 112.63-19.48L112.63-19.48Q112.54-19.68 112.34-19.78 112.15-19.87 112.05-20.07L112.05-20.07Q111.9-20.26 111.85-20.53 111.8-20.8 111.56-20.95L111.56-20.95Q111.32-21.19 110.97-21.24 110.63-21.29 110.39-21.53L110.39-21.53Q110.53-21.68 110.51-21.85 110.49-22.02 110.49-22.17L110.49-22.17Q110.49-22.51 110.78-22.66 111.07-22.8 111.07-23.19L111.07-23.19Q111.27-23.58 111.36-23.68L111.36-23.68Q111.9-25 112.59-26.22 113.27-27.44 114-28.66L114-28.66Q114.25-29.05 114.47-29.42 114.68-29.79 114.93-30.18L114.93-30.18Q115.08-30.52 115.2-30.79 115.32-31.05 115.56-31.3L115.56-31.3Q116.25-32.08 116.71-32.76 117.18-33.45 117.42-34.42L117.42-34.42Q117.47-34.67 117.61-35.11 117.76-35.55 117.98-35.99 118.2-36.43 118.44-36.77 118.69-37.11 118.98-37.11L118.98-37.11Q119.23-37.11 119.69-36.91 120.15-36.72 120.5-36.62L120.5-36.62Q120.79-36.52 121.11-36.45 121.42-36.38 121.72-36.38L121.72-36.38Q121.91-36.38 122.11-36.5 122.3-36.62 122.55-36.62L122.55-36.62Q122.94-36.62 123.28-36.5 123.62-36.38 124.01-36.33ZM151.5-36.28L151.99-36.13Q152.57-36.28 152.82-36.25 153.06-36.23 153.31-36.18L153.31-36.18Q153.6-35.99 153.79-35.69L153.79-35.69Q153.79-34.67 153.77-33.67 153.74-32.67 153.74-31.64L153.74-31.64Q153.74-29.79 153.79-27.93 153.84-26.07 153.79-24.22L153.79-24.22Q153.89-23.78 153.84-23.73 153.79-23.68 153.79-23.58L153.79-23.58Q153.79-21.73 153.89-19.92 153.99-18.12 153.99-16.26L153.99-16.26 153.99-9.77Q153.99-7.67 154.11-5.62 154.23-3.56 154.23-1.51L154.23-1.51Q154.23-1.32 153.99-0.98L153.99-0.98Q153.89-0.59 153.7-0.34L153.7-0.34Q153.26-0.29 152.87-0.49L152.87-0.49Q152.67-0.49 152.6-0.37 152.52-0.24 152.38-0.15L152.38-0.15Q151.99-0.15 151.74 0.05 151.5 0.24 151.16 0.24L151.16 0.24Q150.86 0.24 150.6 0.17 150.33 0.1 149.99 0.1L149.99 0.1Q149.89 0.1 149.69 0.27 149.5 0.44 149.4 0.49L149.4 0.49Q149.15 0.49 148.96 0.56 148.76 0.63 148.52 0.63L148.52 0.63Q148.28 0.44 148.3 0.05 148.32-0.34 147.98-0.44L147.98-0.44Q147.98-0.68 148.01-0.98 148.03-1.27 148.03-1.56L148.03-1.56Q148.03-3.47 147.93-5.4 147.84-7.32 147.79-9.23L147.79-9.23Q147.74-10.06 147.76-10.86 147.79-11.67 147.79-12.5L147.79-12.5Q147.79-12.94 147.79-13.38 147.79-13.82 147.69-14.21L147.69-14.21Q147.4-14.26 147.18-14.14 146.96-14.01 146.71-14.01L146.71-14.01Q145.69-13.67 145.35-13.33L145.35-13.33Q145.05-13.33 144.86-13.23 144.66-13.13 144.42-13.04L144.42-13.04Q144.03-12.94 143.66-12.87 143.3-12.79 142.9-12.65L142.9-12.65Q142.66-12.55 142.42-12.45 142.17-12.35 141.93-12.26L141.93-12.26Q141.39-12.06 140.85-11.89 140.32-11.72 139.78-11.52L139.78-11.52Q139.24-11.43 138.85-11.23 138.46-11.04 138.07-10.84L138.07-10.84Q137.73-8.54 137.7-6.47 137.68-4.39 137.83-2.34L137.83-2.34Q137.73-2.05 137.73-1.68 137.73-1.32 137.58-1.07L137.58-1.07Q137.05-0.93 136.87-1.05 136.7-1.17 136.51-1.27L136.51-1.27Q136.31-1.22 136.19-1.07 136.07-0.93 135.97-0.83L135.97-0.83Q135.58-0.83 135.36-0.66 135.14-0.49 134.95-0.39L134.95-0.39Q134.8-0.34 134.65-0.39 134.51-0.44 134.31-0.34L134.31-0.34Q133.82-0.34 133.85-0.46 133.87-0.59 133.73-0.59L133.73-0.59Q133.53-0.59 133.46-0.42 133.38-0.24 133.19-0.15L133.19-0.15Q132.99-0.05 132.75-0.02 132.5 0 132.26 0.1L132.26 0.1Q132.02-0.15 132.02-0.44 132.02-0.73 131.77-0.98L131.77-0.98Q131.67-1.66 131.65-2.32 131.63-2.98 131.48-3.66L131.48-3.66Q131.58-5.03 131.55-5.86 131.53-6.69 131.53-7.57L131.53-7.57Q131.53-8.35 131.48-9.13 131.43-9.91 131.38-10.69L131.38-10.69Q131.28-12.11 131.21-13.57 131.14-15.04 131.14-16.5L131.14-16.5Q131.14-17.72 131.26-18.9 131.38-20.07 131.38-21.29L131.38-21.29Q131.38-22.12 131.41-22.92 131.43-23.73 131.43-24.56L131.43-24.56Q131.43-25.24 131.41-25.9 131.38-26.56 131.38-27.2L131.38-27.2Q131.38-27.93 131.48-28.64 131.58-29.35 131.58-30.03L131.58-30.03Q131.58-30.86 131.48-31.67 131.38-32.47 131.38-33.3L131.38-33.3Q131.38-33.54 131.43-33.76 131.48-33.98 131.48-34.23L131.48-34.23Q131.43-34.77 131.53-34.89 131.63-35.01 131.72-35.21L131.72-35.21Q131.97-35.25 132.26-35.35 132.55-35.45 132.8-35.35L132.8-35.35Q133.09-35.64 133.6-35.64 134.12-35.64 134.36-35.99L134.36-35.99Q134.7-35.94 134.82-35.96 134.95-35.99 135.04-35.99L135.04-35.99Q135.48-35.89 135.51-36.01 135.53-36.13 135.68-36.13L135.68-36.13Q135.92-36.13 136.44-36.11 136.95-36.08 137.14-35.89L137.14-35.89Q137.63-33.3 137.68-30.62 137.73-27.93 137.73-25.29L137.73-25.29Q137.73-24.61 137.78-23.9 137.83-23.19 137.73-22.51L137.73-22.51Q137.73-22.22 137.68-21.95 137.63-21.68 137.63-21.39L137.63-21.39Q137.63-20.56 137.53-19.65 137.44-18.75 137.44-17.92L137.44-17.92Q138.02-17.58 138.44-17.7 138.85-17.82 139.24-17.97L139.24-17.97Q139.73-18.12 140.15-18.29 140.56-18.46 141-18.6L141-18.6Q141.39-18.8 141.86-18.92 142.32-19.04 142.71-19.14L142.71-19.14Q143.98-19.58 145.2-20.21 146.42-20.85 147.69-21.24L147.69-21.24Q147.59-23.93 147.59-26.59 147.59-29.25 147.59-31.88L147.59-31.88Q147.59-32.62 147.59-33.4 147.59-34.18 147.69-34.91L147.69-34.91Q147.74-35.11 147.81-35.23 147.89-35.35 147.89-35.6L147.89-35.6Q148.03-35.84 148.23-35.94 148.42-36.04 148.52-36.23L148.52-36.23Q148.62-36.13 148.74-36.06 148.86-35.99 149.01-35.94L149.01-35.94Q149.4-36.04 149.47-36.08 149.55-36.13 149.64-36.18L149.64-36.18Q149.89-36.28 150.28-36.28 150.67-36.28 150.91-36.28L150.91-36.28 151.5-36.28ZM183.67-19.38L183.67-19.38Q183.58-19.19 183.48-19.02 183.38-18.85 183.33-18.65L183.33-18.65Q183.53-18.46 183.7-18.24 183.87-18.02 183.87-17.77L183.87-17.77Q183.87-17.58 183.8-17.41 183.72-17.24 183.77-17.09L183.77-17.09Q183.58-16.75 183.36-16.46 183.14-16.16 183.04-15.82L183.04-15.82Q182.84-15.63 182.72-15.43 182.6-15.23 182.5-15.04L182.5-15.04Q182.26-14.94 182.18-14.72 182.11-14.5 181.92-14.36L181.92-14.36Q181.87-14.16 181.43-13.43 180.99-12.7 180.45-11.87 179.91-11.04 179.43-10.25 178.94-9.47 178.74-9.23L178.74-9.23Q178.64-8.98 178.52-8.84 178.4-8.69 178.25-8.5L178.25-8.5Q178.16-8.35 178.11-8.18 178.06-8.01 177.96-7.91L177.96-7.91Q177.86-7.71 177.74-7.57 177.62-7.42 177.52-7.18L177.52-7.18Q177.03-6.54 176.55-5.66 176.06-4.79 175.62-4.1L175.62-4.1Q175.37-3.71 175.15-3.32 174.93-2.93 174.69-2.54L174.69-2.54Q174.45-2.15 174.2-1.81 173.96-1.46 173.71-1.07L173.71-1.07Q173.32-0.78 173.03-0.37 172.74 0.05 172.35 0.34L172.35 0.34Q171.71 0.34 171.56-0.24L171.56-0.24Q170.93-0.39 170.93-0.24 170.93-0.1 170.93 0L170.93 0Q170.73 0.1 170.66 0.29 170.59 0.49 170.39 0.59L170.39 0.59Q170 0.49 169.73 0.27 169.46 0.05 168.98 0.1L168.98 0.1Q168.78-0.2 168.54-0.42 168.29-0.63 168.1-0.88L168.1-0.88Q168-1.17 167.83-1.37 167.66-1.56 167.51-1.76L167.51-1.76Q167.37-2 167.22-2.2 167.07-2.39 166.93-2.59L166.93-2.59Q166.58-3.03 166.27-3.44 165.95-3.86 165.71-4.3L165.71-4.3Q165.31-4.88 164.95-5.49 164.58-6.1 164.19-6.69L164.19-6.69Q164-6.98 163.8-7.28 163.61-7.57 163.46-7.86L163.46-7.86Q163.36-8.11 163.19-8.45 163.02-8.79 162.78-8.89L162.78-8.89Q162.68-9.28 162.43-9.47 162.19-9.67 161.95-9.96L161.95-9.96Q161.6-10.35 161.31-10.82 161.02-11.28 160.72-11.77L160.72-11.77Q159.75-13.13 158.89-14.45 158.04-15.77 157.21-17.19L157.21-17.19Q157.45-17.97 157.45-18.36 157.45-18.75 157.7-18.99L157.7-18.99Q157.7-19.19 157.8-19.58L157.8-19.58Q158.43-20.65 159.02-21.53L159.02-21.53Q159.55-22.36 159.77-22.9 159.99-23.44 160.24-24.02L160.24-24.02Q160.48-24.17 160.63-24.39 160.77-24.61 161.02-24.8L161.02-24.8Q161.12-25.34 161.46-25.71 161.8-26.07 161.9-26.61L161.9-26.61Q162.34-26.95 162.38-27.39L162.38-27.39Q163.02-27.83 163.17-28.56L163.17-28.56Q163.56-28.96 163.83-29.44 164.09-29.93 164.34-30.47L164.34-30.47Q164.92-30.96 165.27-31.74L165.27-31.74Q165.56-31.93 165.71-32.28 165.85-32.62 166.1-32.86L166.1-32.86Q166.49-33.5 166.71-33.91 166.93-34.33 167.17-34.77L167.17-34.77Q167.51-34.77 167.61-35.01 167.71-35.25 168-35.21L168-35.21Q168-35.64 168.24-35.99L168.24-35.99Q168.34-36.04 168.54-36.11 168.73-36.18 168.73-36.28L168.73-36.28Q168.63-36.87 168.78-36.96 168.93-37.06 169.03-37.16L169.03-37.16Q169.56-37.06 169.76-37.01 169.95-36.96 170.39-36.67L170.39-36.67Q170.88-36.67 171.08-36.47 171.27-36.28 171.52-36.18L171.52-36.18Q171.71-35.99 171.83-35.79 171.96-35.6 172.2-35.5L172.2-35.5Q172.59-34.96 173.03-34.33 173.47-33.69 173.86-33.15L173.86-33.15Q174.4-32.42 174.96-31.76 175.52-31.1 176.01-30.32L176.01-30.32Q176.15-30.08 176.55-29.47 176.94-28.86 177.42-28.17 177.91-27.49 178.3-26.93 178.69-26.37 178.84-26.27L178.84-26.27Q178.99-26.03 179.47-25.34 179.96-24.66 180.52-23.9 181.09-23.14 181.62-22.46 182.16-21.78 182.36-21.58L182.36-21.58Q182.89-20.85 183.16-20.39 183.43-19.92 183.67-19.38ZM172.49-10.21L172.49-10.21Q173.03-10.94 173.32-11.52 173.62-12.11 173.91-12.7L173.91-12.7Q174.4-13.28 174.49-13.53 174.59-13.77 174.74-14.01L174.74-14.01Q175.13-14.6 175.54-15.19 175.96-15.77 176.2-16.46L176.2-16.46Q176.5-16.65 176.64-16.94 176.79-17.24 177.08-17.48L177.08-17.48Q176.79-18.51 176.4-19.07 176.01-19.63 175.62-20.17L175.62-20.17Q175.47-20.41 175.32-20.65 175.18-20.9 175.03-21.14L175.03-21.14Q174.84-21.29 174.71-21.44 174.59-21.58 174.45-21.73L174.45-21.73Q174.35-21.97 174.15-22.36L174.15-22.36Q173.96-22.61 173.76-22.8 173.57-23 173.42-23.29L173.42-23.29Q173.22-23.49 172.93-23.83 172.64-24.17 172.32-24.58 172-25 171.76-25.37 171.52-25.73 171.37-25.98L171.37-25.98Q171.27-26.22 171.2-26.39 171.13-26.56 171.03-26.76L171.03-26.76Q170.78-27.1 170.54-27.37 170.3-27.64 170.05-27.98L170.05-27.98Q169.9-27.88 169.78-27.86 169.66-27.83 169.56-27.73L169.56-27.73Q169.22-27.1 168.81-26.56 168.39-26.03 168-25.39L168-25.39Q167.66-24.8 167.32-24.19 166.97-23.58 166.63-23L166.63-23Q166.39-22.66 166.17-22.34 165.95-22.02 165.71-21.63L165.71-21.63Q165.46-21.29 165.29-20.92 165.12-20.56 164.88-20.21L164.88-20.21Q164.48-19.73 164.24-19.34 164-18.95 163.75-18.41L163.75-18.41Q163.9-18.12 164.22-17.6 164.53-17.09 164.88-16.58 165.22-16.06 165.49-15.63 165.75-15.19 165.8-15.04L165.8-15.04Q166.19-14.7 166.44-14.28 166.68-13.87 167.07-13.48L167.07-13.48Q167.27-13.09 167.51-12.79 167.76-12.5 168-12.16L168-12.16Q168.24-11.82 168.63-11.16 169.03-10.5 169.42-9.81 169.81-9.13 170.2-8.54 170.59-7.96 170.83-7.81L170.83-7.81Q171.32-8.35 171.64-9.01 171.96-9.67 172.49-10.21ZM208.23-23.54L208.23-23.54Q207.79-22.61 207.04-21.78 206.28-20.95 205.6-20.21L205.6-20.21Q205.06-19.68 204.67-19.04 204.28-18.41 203.79-17.87L203.79-17.87Q203.4-17.43 203.01-17.07 202.62-16.7 202.27-16.26L202.27-16.26Q202.03-16.06 201.81-15.87 201.59-15.67 201.4-15.38L201.4-15.38Q202.13-13.82 203.13-12.55 204.13-11.28 205.2-10.01L205.2-10.01Q205.74-9.38 206.28-8.81 206.82-8.25 207.21-7.62L207.21-7.62Q207.55-6.88 207.91-6.52 208.28-6.15 208.57-5.76L208.57-5.76Q208.87-5.27 209.09-4.91 209.31-4.54 209.7-4.2L209.7-4.2Q209.7-3.96 209.99-3.74 210.28-3.52 210.38-3.27L210.38-3.27Q210.38-3.03 210.4-2.88 210.43-2.73 210.43-2.64L210.43-2.64Q210.28-2.25 209.92-1.98 209.55-1.71 209.26-1.42L209.26-1.42Q208.77-1.42 208.43-1.12 208.09-0.83 207.5-0.83L207.5-0.83Q207.26-0.63 207.11-0.42 206.96-0.2 206.72 0L206.72 0Q206.33 0 206.01 0.22 205.69 0.44 205.3 0.54L205.3 0.54Q204.81 0.24 204.52-0.22 204.23-0.68 203.74-0.93L203.74-0.93Q203.69-1.17 203.57-1.34 203.45-1.51 203.35-1.71L203.35-1.71Q202.52-2.64 201.79-3.66 201.05-4.69 200.32-5.71L200.32-5.71Q199.93-6.15 199.52-6.57 199.1-6.98 198.71-7.47L198.71-7.47Q198.47-7.76 198.22-8.15 197.98-8.54 197.69-8.89L197.69-8.89Q197.34-9.18 197.1-9.57 196.86-9.96 196.51-10.21L196.51-10.21Q196.07-9.96 195.73-9.57 195.39-9.18 194.95-8.89L194.95-8.89Q194.56-8.54 194.19-8.2 193.83-7.86 193.44-7.57L193.44-7.57Q193.34-6.45 193.34-5.4 193.34-4.35 193.34-3.32L193.34-3.32Q193.34-2.49 193.31-1.73 193.29-0.98 193.1-0.2L193.1-0.2Q192.85-0.15 192.63-0.46 192.41-0.78 192.17-0.83L192.17-0.83Q191.97-0.78 191.85-0.63 191.73-0.49 191.48-0.59L191.48-0.59Q191.24-0.34 190.75-0.15L190.75-0.15Q190.51-0.15 190.21-0.07 189.92 0 189.68 0L189.68 0Q189.29 0 189.14-0.1L189.14-0.1Q188.65 0.24 188.33 0.27 188.02 0.29 187.82 0.29L187.82 0.29Q187.72-0.05 187.63-0.37 187.53-0.68 187.48-1.07L187.48-1.07Q187.33-1.27 187.26-1.51 187.19-1.76 187.09-2L187.09-2Q187.14-2.15 187.14-2.34 187.14-2.54 187.14-2.73L187.14-2.73Q187.14-3.56 187.09-4.35 187.04-5.13 187.14-5.96L187.14-5.96Q187.04-6.2 186.99-6.45 186.94-6.69 186.94-6.93L186.94-6.93Q186.94-7.08 186.97-7.28 186.99-7.47 187.09-7.57L187.09-7.57Q186.94-8.2 186.92-8.91 186.89-9.62 186.89-10.25L186.89-10.25Q186.89-10.6 186.97-10.96 187.04-11.33 187.04-11.72L187.04-11.72Q187.04-12.55 186.94-13.33 186.85-14.11 186.85-14.89L186.85-14.89Q186.89-15.43 186.89-15.72L186.89-15.72Q186.89-16.02 186.94-16.31 186.99-16.6 186.89-16.89L186.89-16.89Q186.94-17.14 187.02-17.26 187.09-17.38 187.09-17.63L187.09-17.63Q187.09-18.26 187.11-18.87 187.14-19.48 187.14-20.17L187.14-20.17Q187.14-20.65 187.16-21.12 187.19-21.58 187.19-22.12L187.19-22.12Q187.19-22.56 187.26-22.95 187.33-23.34 187.38-23.73L187.38-23.73Q187.43-24.17 187.43-24.58 187.43-25 187.43-25.39L187.43-25.39Q187.43-26.42 187.43-27.47 187.43-28.52 187.33-29.54L187.33-29.54Q187.28-29.79 187.24-30.08 187.19-30.37 187.19-30.66L187.19-30.66Q187.09-31.59 187.04-32.57 186.99-33.54 186.85-34.52L186.85-34.52Q186.94-34.67 186.94-34.84 186.94-35.01 186.94-35.16L186.94-35.16Q186.94-35.4 186.94-35.62 186.94-35.84 186.89-36.08L186.89-36.08Q186.99-36.18 187.09-36.3 187.19-36.43 187.28-36.52L187.28-36.52Q187.58-36.52 187.9-36.5 188.21-36.47 188.46-36.28L188.46-36.28Q188.7-36.38 189.02-36.5 189.34-36.62 189.58-36.62L189.58-36.62Q189.97-36.62 190.17-36.43L190.17-36.43Q190.41-36.52 190.43-36.65 190.46-36.77 190.8-36.77L190.8-36.77Q191.44-36.82 191.7-36.82 191.97-36.82 192.22-36.87L192.22-36.87Q192.36-36.77 192.46-36.62 192.56-36.47 192.66-36.33L192.66-36.33Q193.73-35.94 194.39-35.23 195.05-34.52 195.88-34.03L195.88-34.03Q196.07-33.89 196.27-33.79 196.46-33.69 196.66-33.59L196.66-33.59Q197.1-33.3 197.54-32.96 197.98-32.62 198.47-32.37L198.47-32.37Q198.95-32.13 199.03-32.1 199.1-32.08 199.15-31.98L199.15-31.98Q200.22-31.59 201.08-30.93 201.93-30.27 202.91-29.74L202.91-29.74Q203.25-29.54 203.76-29.35 204.28-29.15 204.79-28.93 205.3-28.71 205.77-28.47 206.23-28.22 206.47-27.93L206.47-27.93Q207.01-27.39 207.43-27.17 207.84-26.95 208.23-26.66L208.23-26.66 208.28-25.34Q208.28-25 208.21-24.71 208.13-24.41 208.13-24.07L208.13-24.07Q208.13-23.83 208.23-23.54ZM201.54-24.8L201.54-24.8Q201.01-25.1 200.47-25.37 199.93-25.63 199.54-26.12L199.54-26.12Q199.2-26.22 198.32-26.59 197.44-26.95 196.54-27.37 195.63-27.78 194.88-28.1 194.12-28.42 194.02-28.42L194.02-28.42Q193.88-28.37 193.88-27.78 193.88-27.2 193.88-26.51 193.88-25.83 193.88-25.2 193.88-24.56 193.88-24.41L193.88-24.41Q193.88-23.49 193.83-22.61 193.78-21.73 193.68-20.8L193.68-20.8Q193.58-20.65 193.53-20.53 193.49-20.41 193.44-20.26L193.44-20.26Q193.34-19.58 193.34-18.46 193.34-17.33 193.34-16.65L193.34-16.65Q193.34-16.31 193.34-16.02 193.34-15.72 193.39-15.33L193.39-15.33Q193.63-15.33 193.73-15.45 193.83-15.58 194.07-15.67L194.07-15.67Q194.71-16.36 195.34-16.99 195.98-17.63 196.66-18.31L196.66-18.31Q196.95-18.6 197.25-18.95 197.54-19.29 197.88-19.53L197.88-19.53Q198.12-19.82 198.32-20.09 198.52-20.36 198.76-20.61L198.76-20.61Q199.44-21.34 200.18-22.05 200.91-22.75 201.4-23.63L201.4-23.63Q201.74-23.88 202.03-24.41L202.03-24.41Q201.69-24.46 201.54-24.8Z" opacity="1" transform="matrix(1,0,0,1,0,0)" fill="#ffffff" class="wordmark-text-0" data-fill-palette-color="quaternary" id="text-0"></path></svg></g></svg></g></svg></g></svg></g><g transform="matrix(1,0,0,1,108.86216504753398,0)"><svg viewBox="0 0 60.81563646493204 60.81563646493204" height="60.81563646493204" width="60.81563646493204"><g><svg xmlns="http://www.w3.org/2000/svg" xmlns:xlink="http://www.w3.org/1999/xlink" version="1.1" x="0" y="0" viewBox="0.5 0.5 47 47" enable-background="new 0 0 48 48" xml:space="preserve" height="60.81563646493204" width="60.81563646493204" class="icon-icon-0" data-fill-palette-color="accent" id="icon-0"><g fill="#ff851b" data-fill-palette-color="accent"><path fill="#ff851b" d="M12.1 29.8h23.8V14H12.1V29.8zM21.9 27h7.3V28h-7.3V27zM14.5 23.4l4-1.9-4-1.8v-1.8l6.1 2.8v1.7l-6.1 2.8V23.4z" data-fill-palette-color="accent"></path><path fill="#ff851b" d="M6.9 33.2h34.2V7.1H6.9V33.2zM31.6 8.6H37v2h-5.4V8.6zM10 12h28v19.9H10V12z" data-fill-palette-color="accent"></path><path fill="#ff851b" d="M47.5 39.6V0.5h-47v39.1h15.2v5.9h-4.1v2h24.9v-2h-4.1v-5.9H47.5zM4.8 35.3V5.1h38.4v30.2H4.8z" data-fill-palette-color="accent"></path></g></svg></g></svg></g><g></g></svg></g></svg></g></svg></g><defs></defs></svg><rect width="330.18128" height="239.05050200000002" fill="none" stroke="none" visibility="hidden"></rect></g></svg></g></svg>