<?xml version="1.0" standalone="no"?>
<!DOCTYPE svg PUBLIC "-//W3C//DTD SVG 20010904//EN"
 "http://www.w3.org/TR/2001/REC-SVG-20010904/DTD/svg10.dtd">
<svg version="1.0" xmlns="http://www.w3.org/2000/svg"
 width="400.000000pt" height="400.000000pt" viewBox="0 0 400.000000 400.000000"
 preserveAspectRatio="xMidYMid meet">

<g transform="translate(0.000000,400.000000) scale(0.100000,-0.100000)"
fill="#000000" stroke="none">
<path d="M1840 3994 c-14 -2 -65 -9 -115 -15 -123 -15 -329 -69 -455 -119
-589 -233 -1039 -737 -1199 -1342 -54 -200 -65 -293 -65 -523 0 -230 11 -323
65 -523 200 -756 840 -1332 1619 -1457 130 -21 500 -21 630 0 856 138 1527
809 1665 1665 21 130 21 500 0 630 -138 856 -802 1520 -1665 1665 -90 15 -425
29 -480 19z m261 -299 c53 -8 161 -31 240 -51 183 -47 255 -49 352 -9 69 28
91 27 69 -3 -48 -67 -109 -184 -153 -291 -74 -182 -130 -301 -140 -296 -4 3
-20 42 -35 88 -48 146 -79 204 -143 267 -134 131 -309 188 -486 156 -256 -45
-402 -247 -336 -465 17 -57 32 -82 78 -131 90 -97 182 -137 515 -220 150 -37
309 -82 353 -100 317 -125 480 -364 461 -675 -15 -252 -159 -462 -398 -579
-125 -61 -210 -78 -388 -78 -180 0 -286 16 -570 87 -234 58 -329 66 -420 35
-36 -12 -75 -28 -88 -36 -23 -15 -42 -11 -42 8 0 5 25 51 57 101 76 123 181
340 221 458 28 79 37 96 51 92 13 -3 21 -21 28 -61 30 -159 124 -316 242 -403
140 -103 294 -144 510 -136 145 5 202 19 302 73 197 108 249 381 110 575 -100
139 -257 211 -649 294 -302 65 -440 123 -552 235 -114 114 -160 237 -160 431
0 204 44 316 174 444 107 106 208 160 356 190 88 18 324 18 441 0z m772 -107
c15 -12 12 -21 -29 -93 -26 -44 -89 -170 -140 -280 -52 -110 -99 -204 -103
-208 -12 -12 -51 1 -51 18 0 23 282 575 294 575 7 0 20 -6 29 -12z m-848 -118
c98 -14 204 -66 269 -133 50 -52 85 -111 73 -124 -4 -3 -34 20 -68 51 -114
106 -233 156 -370 156 -136 0 -235 -54 -285 -156 -36 -73 -38 -150 -6 -216 23
-47 92 -126 145 -166 16 -12 26 -26 22 -32 -9 -15 -98 36 -152 88 -123 118
-127 317 -9 435 88 88 215 120 381 97z m-668 -980 c72 -65 160 -100 425 -166
424 -105 570 -154 643 -217 39 -32 92 -127 73 -127 -8 0 -30 16 -49 36 -85 88
-169 120 -564 219 -412 102 -532 153 -595 252 -57 89 -29 90 67 3z m1506 -69
c77 -82 130 -183 153 -291 22 -101 14 -278 -16 -375 -73 -235 -258 -428 -510
-532 -123 -51 -214 -66 -395 -67 -178 0 -230 8 -519 80 -256 63 -351 67 -502
19 -15 -5 -23 0 -32 19 -10 23 -9 27 17 40 15 8 58 20 95 27 92 17 209 2 469
-60 257 -62 362 -75 525 -68 154 6 253 30 377 92 210 104 373 296 426 502 25
97 27 252 4 349 -21 89 -75 200 -130 269 -25 30 -45 57 -45 60 0 16 25 -3 83
-64z m-1347 -531 c14 -41 39 -100 57 -130 41 -73 148 -178 219 -215 74 -38 79
-63 8 -36 -164 62 -273 176 -332 345 -35 103 -36 118 -2 114 22 -3 29 -13 50
-78z m-206 -935 c-1 -20 -12 -45 -19 -45 -5 0 -14 7 -21 15 -16 19 -50 20 -50
1 0 -18 18 -32 52 -40 60 -14 76 -66 33 -106 -21 -20 -31 -22 -75 -17 -66 8
-72 12 -58 42 14 30 29 32 46 5 14 -23 44 -26 61 -6 14 17 -4 33 -48 42 -55
11 -78 68 -44 106 14 16 28 19 70 16 29 -2 53 -8 53 -13z m187 3 c-7 -20 11
-58 28 -58 8 0 15 -4 15 -9 0 -5 3 -17 7 -27 5 -13 3 -15 -7 -9 -21 13 -2 -46
23 -73 l22 -23 -50 3 c-48 3 -50 4 -47 31 3 25 0 28 -17 22 -10 -3 -22 -1 -26
5 -3 5 -10 10 -16 10 -12 0 -12 -37 1 -45 21 -13 8 -25 -28 -25 -21 0 -41 3
-44 6 -4 3 5 22 18 41 27 40 29 49 14 58 -7 4 -7 13 0 26 6 11 15 17 20 14 11
-7 24 40 15 54 -4 7 9 11 35 11 30 0 41 -4 37 -12z m178 3 c3 -5 1 -12 -5 -16
-16 -10 -12 -137 6 -163 15 -22 14 -22 -25 -22 -38 0 -68 19 -43 28 16 5 16
154 0 170 -9 9 -4 12 24 12 20 0 39 -4 43 -9z m110 0 c3 -5 1 -12 -5 -16 -11
-6 -14 -55 -4 -55 9 0 43 44 44 57 0 6 -6 14 -12 16 -7 3 8 6 35 6 26 1 47 -2
47 -6 0 -3 -15 -19 -32 -34 l-33 -27 28 -56 c15 -31 34 -59 42 -62 32 -13 13
-25 -32 -22 -35 2 -47 7 -45 17 4 18 -18 71 -29 71 -14 0 -20 -39 -10 -59 16
-29 14 -31 -23 -31 -38 0 -55 15 -37 33 14 14 14 132 1 158 -10 17 -7 19 24
19 19 0 37 -4 41 -9z m220 0 c3 -5 1 -12 -5 -16 -16 -10 -12 -137 6 -163 15
-22 14 -22 -25 -22 -38 0 -68 19 -43 28 16 5 16 154 0 170 -9 9 -4 12 24 12
20 0 39 -4 43 -9z m175 -6 c-1 -20 -12 -45 -19 -45 -5 0 -14 7 -21 15 -16 19
-50 20 -50 1 0 -18 18 -32 52 -40 60 -14 76 -66 33 -106 -21 -20 -31 -22 -75
-17 -66 8 -72 12 -58 42 14 30 29 32 46 5 14 -23 44 -26 61 -6 14 17 -4 33
-48 42 -55 11 -78 68 -44 106 14 16 28 19 70 16 29 -2 53 -8 53 -13z m125 6
c3 -5 1 -12 -5 -16 -5 -3 -10 -19 -10 -36 0 -24 4 -29 25 -29 22 0 25 4 25 33
0 18 -6 39 -12 46 -11 10 -5 12 26 9 l39 -3 -2 -88 c-1 -57 2 -94 10 -103 10
-12 5 -14 -29 -14 -40 0 -62 13 -42 25 5 3 10 19 10 36 0 24 -4 29 -25 29 -21
0 -25 -5 -25 -29 0 -17 5 -33 10 -36 22 -13 8 -25 -30 -25 -28 0 -40 4 -40 14
0 8 5 18 10 21 16 10 12 55 -5 55 -8 0 -15 4 -15 9 0 5 7 14 15 21 17 14 20
56 5 65 -5 3 -10 10 -10 16 0 12 67 12 75 0z m278 -19 c11 -11 21 -38 24 -63
7 -76 -46 -132 -109 -115 -31 8 -68 65 -68 105 0 35 23 86 42 95 25 11 91 -3
111 -22z m192 12 c29 -19 35 -71 10 -80 -24 -10 -17 -40 16 -73 l30 -31 -33
-13 c-18 -8 -36 -12 -39 -8 -3 3 -12 28 -19 54 -7 26 -18 46 -24 44 -18 -6
-19 -47 0 -68 17 -18 16 -19 -24 -19 -43 0 -62 14 -43 33 17 17 13 44 -6 52
-17 6 -17 7 0 19 20 15 24 76 5 76 -8 0 -5 7 6 15 26 20 91 19 121 -1z m-1284
-360 c24 -12 30 -21 27 -42 -2 -18 -8 -26 -18 -24 -8 2 -12 0 -8 -4 4 -4 3
-13 -4 -21 -8 -11 -4 -22 21 -53 l31 -39 -29 -16 c-28 -14 -31 -14 -39 2 -5
10 -13 33 -17 51 -3 18 -14 36 -24 41 -15 8 -16 5 -13 -25 2 -19 8 -37 13 -40
21 -13 6 -24 -31 -24 l-41 0 7 35 c4 23 2 41 -7 51 -10 13 -10 17 0 23 8 5 12
23 10 45 -3 25 1 40 11 46 23 15 78 12 111 -6z m217 -1 c-3 -36 2 -53 17 -53
8 0 19 -9 25 -19 14 -27 13 -34 -5 -27 -8 3 -15 3 -15 1 0 -13 26 -61 37 -68
26 -16 12 -27 -33 -27 -43 0 -46 2 -41 23 8 30 -7 56 -17 30 -7 -16 -9 -16
-26 7 l-20 25 0 -31 c0 -16 5 -35 12 -42 9 -9 2 -12 -34 -12 -51 0 -66 11 -42
31 28 23 44 65 31 78 -9 9 -5 17 16 37 19 18 26 32 22 45 -6 17 -1 19 34 19
33 0 40 -3 39 -17z m237 5 c4 -4 1 -16 -5 -28 -11 -20 -13 -20 -29 -6 -24 22
-53 21 -49 -1 2 -10 24 -28 50 -40 26 -12 49 -31 53 -43 9 -27 -18 -68 -50
-76 -28 -7 -112 3 -118 14 -3 4 3 19 13 34 l17 28 22 -26 c26 -30 66 -30 66 0
0 14 -10 22 -35 28 -43 11 -70 41 -70 79 0 16 7 32 18 39 17 10 106 9 117 -2z
m190 -7 c-8 -25 3 -48 24 -54 10 -2 21 -14 24 -26 4 -17 2 -21 -9 -17 -8 3
-14 3 -14 1 0 -13 26 -61 37 -68 26 -16 12 -27 -33 -27 -43 0 -46 2 -41 23 8
30 -7 56 -17 30 -7 -16 -9 -16 -26 7 l-20 25 0 -31 c0 -16 5 -35 12 -42 9 -9
2 -12 -34 -12 -51 0 -66 11 -42 31 25 21 44 65 33 76 -12 12 -1 43 16 43 16 0
26 25 19 45 -5 12 3 15 36 15 36 0 41 -2 35 -19z m167 -71 c-3 -57 0 -90 6
-90 22 0 42 13 42 26 0 23 26 16 40 -11 17 -31 24 -31 49 1 22 28 28 64 11 64
-7 0 -7 7 0 20 6 11 15 18 21 15 11 -7 28 35 22 53 -3 7 4 12 20 12 34 0 58
-10 51 -21 -8 -14 6 -49 21 -49 7 0 16 -7 19 -16 9 -24 7 -36 -5 -28 -16 10
-2 -35 22 -68 l20 -28 -44 0 c-49 0 -62 7 -47 25 6 7 7 20 4 30 -7 17 -8 17
-20 1 -11 -16 -13 -16 -27 4 -13 18 -15 19 -21 5 -3 -9 -1 -25 4 -35 6 -10 10
-21 10 -23 0 -3 -57 -5 -127 -6 l-128 -1 0 105 0 105 30 0 30 0 -3 -90z"/>
<path d="M1715 3643 c-205 -28 -390 -153 -474 -320 -34 -69 -51 -151 -51 -253
1 -252 91 -404 305 -507 88 -42 145 -59 470 -133 170 -39 337 -97 412 -142 68
-41 170 -148 202 -212 99 -201 51 -439 -112 -564 -69 -52 -98 -66 -204 -98
-76 -23 -106 -26 -223 -26 -242 0 -416 63 -567 205 -73 70 -90 93 -135 183
l-51 104 -32 -73 c-39 -88 -94 -197 -133 -264 l-30 -51 36 10 c67 19 197 3
420 -51 269 -65 374 -81 542 -81 170 0 249 17 370 76 77 39 109 62 175 128
130 132 178 245 179 426 0 182 -44 299 -154 411 -125 126 -236 175 -612 269
-271 68 -371 104 -457 161 -78 52 -126 107 -165 188 -28 60 -31 75 -30 161 0
126 24 188 106 276 180 192 495 215 740 54 42 -27 95 -71 118 -97 35 -40 88
-135 115 -208 4 -12 9 -15 12 -8 4 12 129 307 139 329 3 7 -12 9 -48 6 -39 -3
-97 7 -223 37 -94 22 -215 48 -270 56 -91 14 -296 18 -370 8z"/>
<path d="M1447 886 c-3 -8 -2 -18 4 -22 16 -9 22 2 11 21 -8 15 -10 16 -15 1z"/>
<path d="M2487 942 c-9 -18 -1 -132 11 -144 30 -30 68 35 57 97 -4 22 -13 34
-35 42 -16 6 -31 8 -33 5z"/>
<path d="M2591 864 c0 -11 3 -14 6 -6 3 7 2 16 -1 19 -3 4 -6 -2 -5 -13z"/>
<path d="M2700 910 c0 -33 19 -40 40 -15 16 20 5 45 -20 45 -16 0 -20 -7 -20
-30z"/>
<path d="M1420 550 c0 -33 3 -35 31 -20 23 13 25 36 3 44 -28 11 -34 7 -34
-24z"/>
<path d="M1650 521 c0 -6 5 -13 10 -16 6 -3 10 1 10 9 0 9 -4 16 -10 16 -5 0
-10 -4 -10 -9z"/>
<path d="M2080 521 c0 -6 5 -13 10 -16 6 -3 10 1 10 9 0 9 -4 16 -10 16 -5 0
-10 -4 -10 -9z"/>
<path d="M2510 521 c0 -12 5 -21 10 -21 6 0 10 6 10 14 0 8 -4 18 -10 21 -5 3
-10 -3 -10 -14z"/>
</g>
</svg>
